<svg width="300" height="342" viewBox="0 0 300 342" fill="none" xmlns="http://www.w3.org/2000/svg">
<g clip-path="url(#clip0_155_120)">
<path d="M152.101 17.3257C187.296 17.3257 217.758 30.7584 243.488 57.6238C269.351 84.3557 282.282 117.771 282.282 157.869C282.282 199.17 269.284 233.454 243.287 260.72C217.291 287.987 185.829 301.62 148.901 301.62C111.573 301.62 80.1766 288.321 54.7131 261.722C29.3834 235.124 16.7185 200.706 16.7185 158.47C16.7185 115.298 31.3829 80.0784 60.7116 52.8119C86.1744 29.1544 116.637 17.3257 152.1 17.3257H152.101ZM148.299 31.9616C124.035 31.9616 104.571 40.9839 89.907 59.0283C71.6429 81.4832 62.5109 114.363 62.5109 157.669C62.5109 202.044 71.9764 236.195 90.9075 260.12C105.439 278.298 124.636 287.386 148.499 287.386C173.962 287.386 194.959 277.429 211.49 257.514C228.154 237.599 236.487 206.189 236.487 163.284C236.487 116.77 227.355 82.0856 209.091 59.2296C194.426 41.0517 174.163 31.9627 148.3 31.9627L148.299 31.9616Z" fill="#E6E8EC"/>
</g>
<defs>
<clipPath id="clip0_155_120">
<rect width="265.5" height="283.5" fill="white" transform="translate(16.75 17.75)"/>
</clipPath>
</defs>
</svg>
