<svg width="300" height="342" viewBox="0 0 300 342" fill="none" xmlns="http://www.w3.org/2000/svg">
<g clip-path="url(#clip0_155_119)">
<path d="M150 12C67.2 12 0 79.2 0 162C0 244.8 67.2 312 150 312C232.8 312 300 244.8 300 162C300 79.2 232.8 12 150 12ZM97.95 184.05C102.3 188.4 102.3 195.6 97.95 199.95C95.7 202.2 92.85 203.25 90 203.25C87.15 203.25 84.3 202.2 82.05 199.95L52.05 169.95C47.7 165.6 47.7 158.4 52.05 154.05L82.05 124.05C86.4 119.7 93.6 119.7 97.95 124.05C102.3 128.4 102.3 135.6 97.95 139.95L75.9 162L97.95 184.05ZM175.35 131.4L145.35 201.45C143.55 205.65 139.35 208.2 135 208.2C133.5 208.2 132 207.9 130.65 207.3C124.95 204.9 122.25 198.3 124.8 192.45L154.8 122.4C157.2 116.7 163.8 114 169.5 116.55C175.2 119.1 177.75 125.7 175.35 131.4ZM247.95 169.95L217.95 199.95C215.7 202.2 212.85 203.25 210 203.25C207.15 203.25 204.3 202.2 202.05 199.95C197.7 195.6 197.7 188.4 202.05 184.05L224.1 162L202.05 139.95C197.7 135.6 197.7 128.4 202.05 124.05C206.4 119.7 213.6 119.7 217.95 124.05L247.95 154.05C252.3 158.4 252.3 165.6 247.95 169.95Z" fill="white"/>
</g>
<defs>
<clipPath id="clip0_155_119">
<rect width="300" height="342" fill="white"/>
</clipPath>
</defs>
</svg>
